<svg xmlns="http://www.w3.org/2000/svg" xmlns:xlink="http://www.w3.org/1999/xlink" width="400" height="300" viewBox="0 0 400 300"><defs><clipPath id="b"><rect width="400" height="300"/></clipPath></defs><g id="a" clip-path="url(#b)"><rect width="400" height="300" fill="#fff"/><path d="M8.585,3.145H52.36a1.075,1.075,0,0,0,1.19-1.19v-9.52a1.115,1.115,0,0,0-1.19-1.19H19.805V-63.24a1.115,1.115,0,0,0-1.19-1.19H8.585a1.075,1.075,0,0,0-1.19,1.19v65.2A1.075,1.075,0,0,0,8.585,3.145ZM90.95,4.42c19.72,0,34.085-13.855,34.085-35.02,0-21.25-14.365-35.105-34.085-35.105-19.635,0-34,13.855-34,35.105C56.95-9.435,71.315,4.42,90.95,4.42ZM69.785-30.6c0-13.345,8.245-22.95,21.165-22.95,13.005,0,21.165,9.6,21.165,22.95S103.955-7.735,90.95-7.735C78.03-7.735,69.785-17.255,69.785-30.6ZM168.64,4.42c20.315,0,31.28-13.005,31.28-29.835v-7.65a1.162,1.162,0,0,0-1.19-1.19H170.51a1.162,1.162,0,0,0-1.19,1.19v9.18a1.162,1.162,0,0,0,1.19,1.19h16.915c-1.02,9.86-8.5,14.96-18.445,14.96-12.92,0-20.74-9.01-20.74-22.78,0-13.855,7.735-23.035,20.74-23.035,7.65,0,13.43,3.4,16.66,9.6a1.1,1.1,0,0,0,1.1.765l.34-.085,9.86-2.72a1.023,1.023,0,0,0,.85-1.1,1.078,1.078,0,0,0-.085-.51c-4.505-11.475-14.705-18.105-28.9-18.105-19.465,0-33.4,13.855-33.4,35.105C135.4-9.435,148.75,4.42,168.64,4.42Zm75.565,0c19.72,0,34.085-13.855,34.085-35.02,0-21.25-14.365-35.105-34.085-35.105-19.635,0-34,13.855-34,35.105C210.205-9.435,224.57,4.42,244.205,4.42ZM223.04-30.6c0-13.345,8.245-22.95,21.165-22.95,13.005,0,21.165,9.6,21.165,22.95S257.21-7.735,244.205-7.735C231.285-7.735,223.04-17.255,223.04-30.6Z" transform="translate(59 180)" fill="#101010"/></g></svg>